<?xml version="1.0" encoding="UTF-8" standalone="no"?>
<!-- Created with Inkscape (http://www.inkscape.org/) -->

<svg
   xmlns:dc="http://purl.org/dc/elements/1.1/"
   xmlns:cc="http://creativecommons.org/ns#"
   xmlns:rdf="http://www.w3.org/1999/02/22-rdf-syntax-ns#"
   xmlns:svg="http://www.w3.org/2000/svg"
   xmlns="http://www.w3.org/2000/svg"
   xmlns:sodipodi="http://sodipodi.sourceforge.net/DTD/sodipodi-0.dtd"
   xmlns:inkscape="http://www.inkscape.org/namespaces/inkscape"
   viewBox="0 0 515.3235 362.69435"
   id="svg2"
   version="1.1"
   inkscape:version="0.91 r13725"
   sodipodi:docname="mapovertime.svg">
  <defs
     id="defs4">
    <clipPath
       id="clipPath4156"
       clipPathUnits="userSpaceOnUse">
      <path
         inkscape:connector-curvature="0"
         id="path4158"
         d="m 18,6 649.758,0 0,581 L 18,587 18,6 Z" />
    </clipPath>
    <clipPath
       id="clipPath4164"
       clipPathUnits="userSpaceOnUse">
      <path
         inkscape:connector-curvature="0"
         id="path4166"
         d="m 19.976,549.4276 0,-531.9596 632.0504,0 0,531.9596" />
    </clipPath>
    <clipPath
       id="clipPath7700"
       clipPathUnits="userSpaceOnUse">
      <path
         inkscape:connector-curvature="0"
         id="path7702"
         d="m 18,543.5651 120,0 0,50.435 -120,0 0,-50.435 z" />
    </clipPath>
    <clipPath
       clipPathUnits="userSpaceOnUse"
       id="clipPath3946">
      <path
         d="M 0,0 792,0 792,612 0,612 0,0 Z"
         id="path3948"
         inkscape:connector-curvature="0" />
    </clipPath>
    <clipPath
       clipPathUnits="userSpaceOnUse"
       id="clipPath3930">
      <path
         d="M 0,0 792,0 792,612 0,612 0,0 Z"
         id="path3932"
         inkscape:connector-curvature="0" />
    </clipPath>
    <clipPath
       clipPathUnits="userSpaceOnUse"
       id="clipPath3914">
      <path
         d="M 0,0 792,0 792,612 0,612 0,0 Z"
         id="path3916"
         inkscape:connector-curvature="0" />
    </clipPath>
    <clipPath
       clipPathUnits="userSpaceOnUse"
       id="clipPath3034">
      <path
         d="M 0,0 792,0 792,612 0,612 0,0 Z"
         id="path3036"
         inkscape:connector-curvature="0" />
    </clipPath>
  </defs>
  <sodipodi:namedview
     id="base"
     pagecolor="#ffffff"
     bordercolor="#666666"
     borderopacity="1.0"
     inkscape:pageopacity="0.0"
     inkscape:pageshadow="2"
     inkscape:zoom="1.3101273"
     inkscape:cx="242.63332"
     inkscape:cy="119.06007"
     inkscape:document-units="px"
     inkscape:current-layer="layer1"
     showgrid="false"
     fit-margin-top="0"
     fit-margin-left="0"
     fit-margin-right="0"
     fit-margin-bottom="0"
     inkscape:window-width="1461"
     inkscape:window-height="841"
     inkscape:window-x="-8"
     inkscape:window-y="-8"
     inkscape:window-maximized="1" />
  <metadata
     id="metadata7">
    <rdf:RDF>
      <cc:Work
         rdf:about="">
        <dc:format>image/svg+xml</dc:format>
        <dc:type
           rdf:resource="http://purl.org/dc/dcmitype/StillImage" />
        <dc:title></dc:title>
      </cc:Work>
    </rdf:RDF>
  </metadata>
  <g
     inkscape:label="Layer 1"
     inkscape:groupmode="layer"
     id="layer1"
     transform="translate(90.052818,-341.13509)">
    <rect
       style="fill:#ffffff;fill-opacity:1;stroke:#000000;stroke-width:0.8948006;stroke-miterlimit:4;stroke-dasharray:none;stroke-opacity:1"
       id="rect16029"
       width="116.68552"
       height="130.82025"
       x="-94.061737"
       y="338.38547" />
    <path
       style="fill:none;fill-rule:evenodd;stroke:#000000;stroke-width:1px;stroke-linecap:butt;stroke-linejoin:miter;stroke-opacity:1"
       d="m 226.73126,571.2908 -2.23214,12.5 5.71428,1.07142 0.71429,-3.83928 5,0.71428 -0.17857,2.14286 17.23214,3.125 0,1.33929 4.10714,0.80357 1.07143,-1.69643 1.69643,0.26786 1.875,-10 z"
       id="bh"
       inkscape:connector-curvature="0">
      <title
         id="title11820">Boynton</title>
      <desc
         id="desc11736">1868-</desc>
    </path>
    <path
       style="fill:none;fill-rule:evenodd;stroke:#000000;stroke-width:1px;stroke-linecap:butt;stroke-linejoin:miter;stroke-opacity:1"
       d="m 268.9634,512.89794 -0.17857,1.78571 2.76786,0.44643 -3.21429,19.55357 1.25,0.35714 -0.53571,3.03572 -1.25,-0.17857 -1.07143,5.89285 3.21429,0.53572 -0.17857,2.14286 0.89285,1.42857 -0.53571,1.78571 -1.07143,0.71429 -0.53571,1.96428 -2.67858,-0.26785 -1.07142,5.44642 1.07142,1.51786 -0.53571,1.96429 -1.42857,0.44643 -0.71429,7.05357 -9.10714,-1.69643 4.55357,-26.69643 -7.5,-1.16071 0.44643,-3.03572 -13.21429,-2.32143 4.10715,-23.125 22.94643,3.66072 0.53571,-1.96429 z"
       id="wb"
       inkscape:connector-curvature="0">
      <title
         id="title11822">Washburn</title>
      <desc
         id="desc11746">1868-</desc>
    </path>
    <path
       style="fill:none;fill-rule:evenodd;stroke:#000000;stroke-width:1px;stroke-linecap:butt;stroke-linejoin:miter;stroke-opacity:1"
       d="m 310.2134,644.59437 -0.53571,-2.14286 -2.23214,0.44643 -1.07143,-6.33929 5.35714,-0.625 0.80357,3.66072 c 0,0 1.87212,-0.35664 2.32143,2.23215 0.16777,0.9667 -0.29479,1.77462 -1.07091,2.18423 -1.38449,0.7307 -3.57195,0.58362 -3.57195,0.58362 z"
       id="st"
       inkscape:connector-curvature="0"
       sodipodi:nodetypes="ccccccssc">
      <title
         id="title11830">Magnetic_Lab</title>
      <desc
         id="desc11744">1886-</desc>
    </path>
    <path
       style="fill:none;fill-rule:evenodd;stroke:#000000;stroke-width:1px;stroke-linecap:butt;stroke-linejoin:miter;stroke-opacity:1"
       d="m 241.73126,460.6658 -0.71428,4.91071 3.03571,0.625 -2.32143,14.73214 20.89286,3.75 -0.98214,5.98214 12.94642,2.14286 0.89286,-5.80357 2.23214,-0.80357 0.53572,-3.39286 -1.42857,-1.42857 5.53571,-29.64286 -23.03571,-3.83928 -1.63678,8.96122 -11.84537,-1.90765 -1.07142,6.25 z"
       id="sl"
       inkscape:connector-curvature="0"
       sodipodi:nodetypes="ccccccccccccccccc">
      <title
         id="title11824">Salisbury</title>
      <desc
         id="desc11750">1889-</desc>
    </path>
    <path
       style="fill:none;fill-rule:evenodd;stroke:#000000;stroke-width:1px;stroke-linecap:butt;stroke-linejoin:miter;stroke-opacity:1"
       d="m 219.23126,526.02294 12.05357,2.41071 -4.64285,26.60714 -11.69643,-2.14285 z"
       id="sh"
       inkscape:connector-curvature="0">
      <title
         id="title11818">Stratton</title>
      <desc
         id="desc11754">1894-</desc>
    </path>
    <path
       style="fill:none;fill-rule:evenodd;stroke:#000000;stroke-width:1px;stroke-linecap:butt;stroke-linejoin:miter;stroke-opacity:1"
       d="m 224.14198,496.73722 13.125,2.05357 -3.75,21.875 -13.03572,-2.41071 z"
       id="pc"
       inkscape:connector-curvature="0">
      <title
         id="title11816">Project_Center</title>
      <desc
         id="desc11758">1902-</desc>
    </path>
    <path
       style="fill:none;fill-rule:evenodd;stroke:#000000;stroke-width:1px;stroke-linecap:butt;stroke-linejoin:miter;stroke-opacity:1"
       d="m 257.44555,386.73722 -14.91072,25.98215 8.21429,5.17857 -2.67857,5 27.14285,16.25 3.83929,-5 7.58929,4.375 15.35714,-26.25 -12.23214,-6.875 -6.875,11.25 -19.46429,-11.33929 6.42857,-10.98214 z"
       id="ee"
       inkscape:connector-curvature="0">
      <title
         id="title11826">Great_Lab</title>
      <desc
         id="desc11762">1906-</desc>
    </path>
    <path
       style="fill:none;fill-rule:evenodd;stroke:#000000;stroke-width:1px;stroke-linecap:butt;stroke-linejoin:miter;stroke-opacity:1"
       d="m 116.99912,474.59437 -5.17857,28.92857 15.17857,2.41071 0.44643,-2.76786 31.78571,5 3.57143,-21.78571 -21.96429,-3.57143 0.71429,-4.28571 z"
       id="ag"
       inkscape:connector-curvature="0">
      <title
         id="title11808">Alumni_Gym</title>
      <desc
         id="desc11766">1916-2016</desc>
    </path>
    <path
       style="fill:none;fill-rule:evenodd;stroke:#000000;stroke-width:1px;stroke-linecap:butt;stroke-linejoin:miter;stroke-opacity:1"
       d="m 154.5884,380.93365 4.73215,3.83929 -2.58929,3.57143 1.51786,1.25 -2.58929,3.75 -1.42857,-1.07143 -3.48214,4.55357 -1.875,-0.71429 -1.42857,2.05357 1.07143,1.69643 -2.14286,2.76786 -1.78572,-1.16071 -1.78571,2.23214 1.51786,1.51786 -5.71429,6.875 -6.69643,-5.26786 3.92857,-5.44643 -12.67857,-9.64286 4.55357,-5.44643 6.33929,4.91072 3.03571,-4.28572 2.23215,1.51786 2.05357,-3.83928 2.94643,-0.71429 2.94643,1.69643 -0.17858,1.60714 1.875,0.98214 c 0,0 5.80358,-6.96428 5.625,-7.23214 z"
       id="hh"
       inkscape:connector-curvature="0">
      <title
         id="title11810">Higgins_House</title>
      <desc
         id="desc11770">1923-</desc>
    </path>
    <path
       style="fill:none;fill-rule:evenodd;stroke:#000000;stroke-width:1px;stroke-linecap:butt;stroke-linejoin:miter;stroke-opacity:1"
       d="m 130.12412,607.45151 -2.76786,16.42857 -9.64286,-1.69643 2.58929,-16.25 -6.25,-1.33928 -0.35714,1.69643 -7.5,-1.33929 0.26785,-1.42857 -2.58928,-0.44643 1.78571,-9.28571 2.05357,0 0.80358,-3.92858 7.5,1.33929 -0.71429,3.39286 9.91071,1.875 0.26786,-1.60715 3.66072,0.53572 -0.17858,1.69643 9.375,1.42857 0.71429,-4.10714 7.41071,1.25 -0.80357,4.28571 3.48215,0.53571 -1.51786,9.28572 -3.92857,-0.44643 -0.53572,1.78571 -5.89285,-1.16071 -0.0893,-1.42857 z"
       id="rh"
       inkscape:connector-curvature="0">
      <title
         id="title11804">Riley</title>
      <desc
         id="desc11774">1926-</desc>
    </path>
    <path
       style="fill:none;fill-rule:evenodd;stroke:#000000;stroke-width:1px;stroke-linecap:butt;stroke-linejoin:miter;stroke-opacity:1"
       d="m 169.05269,579.68365 -0.44643,2.76786 c 0,0 -5.50522,-1.3855 -5.98214,1.69643 -0.36326,2.34745 1.25,2.94643 1.25,2.94643 l -3.48214,18.57143 -4.91072,-0.71429 -1.07143,5.71429 1.42857,0.26785 -1.07142,6.42857 5.71428,1.16072 -0.35714,1.25 1.60714,0.80357 -0.0893,1.60714 9.19642,1.78572 0.35715,-1.78572 2.41071,-0.0893 0.35714,-1.51786 5.89286,0.80357 0.80357,-6.07143 -0.625,-0.44643 0.17857,-1.16071 2.41072,-0.17857 0.71428,-5.08929 -7.05357,-1.33928 2.85715,-17.94643 c 0,0 2.31682,0.0794 2.58928,-2.05357 0.32106,-2.51331 -5.44643,-3.57143 -5.44643,-3.57143 l 0.26786,-2.5 z"
       id="ah"
       inkscape:connector-curvature="0"
       sodipodi:nodetypes="ccsccccccccccccccccccccccsccc">
      <title
         id="title11806">Alden</title>
      <desc
         id="desc11778">1940-</desc>
    </path>
    <path
       style="fill:none;fill-rule:evenodd;stroke:#000000;stroke-width:1px;stroke-linecap:butt;stroke-linejoin:miter;stroke-opacity:1"
       d="m 169.94555,492.27294 9.10714,1.33928 1.78571,-8.39285 15.26786,2.5 -0.35713,1.69642 6.16071,1.07143 -2.05357,11.42857 -5.44643,-1.16071 -1.96428,10 2.94643,0.625 -0.98215,4.64286 -2.94643,-0.53572 -2.23214,10.71429 6.33929,1.16071 -1.875,11.78572 -5.71429,-0.89286 -0.35714,1.60714 -4.28572,-0.80357 -0.44642,1.78572 -5.625,-0.71429 -0.17858,-1.875 -4.91071,-0.80357 -0.26786,-2.05357 -5.98214,-0.71429 1.875,-11.69643 -2.23214,1.07143 -1.96429,-3.92857 1.875,-1.33929 z"
       id="hl"
       inkscape:connector-curvature="0"
       sodipodi:nodetypes="ccccccccccccccccccccccccccccc">
      <title
         id="title11814">Higgins_Labs</title>
      <desc
         id="desc11782">1941-</desc>
    </path>
    <path
       style="fill:none;fill-rule:evenodd;stroke:#000000;stroke-width:1px;stroke-linecap:butt;stroke-linejoin:miter;stroke-opacity:1"
       d="m 334.94175,436.86924 12.18496,-5.30331 0.63135,1.38896 7.89182,-3.53553 3.15672,7.1342 -7.26047,3.85121 2.27284,4.98763 1.83091,-0.82075 1.95717,3.91434 -1.8309,1.01015 2.14657,4.29315 7.00793,-3.53553 4.23002,9.02824 -7.51301,3.53553 0.88388,1.8309 -11.99556,6.06092 z"
       id="kh"
       inkscape:connector-curvature="0"
       sodipodi:nodetypes="ccccccccccccccccc">
      <title
         id="title11828">Kaven</title>
      <desc
         id="desc11786">1954-</desc>
    </path>
    <path
       style="fill:none;fill-rule:evenodd;stroke:#000000;stroke-width:1px;stroke-linecap:butt;stroke-linejoin:miter;stroke-opacity:1"
       d="m 23.75163,600.76649 7.32361,-40.72178 -11.42735,-1.76776 -1.51523,8.64943 c 0,0 -8.5269612,-1.29384 -15.973037,4.41941 -6.537211,5.0159 -8.018093,13.63706 -8.018093,13.63706 l -9.21764,-1.38896 -1.70463,10.98541 z"
       id="mh"
       inkscape:connector-curvature="0"
       sodipodi:nodetypes="ccccscccc"
       inkscape:label="#mh">
      <title
         id="title11800">Morgan Hall</title>
      <desc
         id="desc11790">1958-</desc>
    </path>
    <path
       style="fill:none;fill-rule:evenodd;stroke:#000000;stroke-width:1px;stroke-linecap:butt;stroke-linejoin:miter;stroke-opacity:1"
       d="m 201.48126,410.57651 14.625,2.875 -4.25,26.875 1.5,1.5 -2.125,13.375 -2.375,0.75 -1.125,8 -4.25,3.625 -7.125,-1.25 -2,-4.25 1.375,-9.875 -1.25,-0.375 z"
       id="oh"
       inkscape:connector-curvature="0">
      <title
         id="title11812">Olin</title>
      <desc
         id="desc11794">1958-</desc>
    </path>
    <path
       style="fill:none;fill-rule:evenodd;stroke:#000000;stroke-width:1px;stroke-linecap:butt;stroke-linejoin:miter;stroke-opacity:1"
       d="m 28.23126,575.82651 16.625,12.375 43.125,7 -0.625,4.625 1.25,0.25 -1,6.875 -1.5,-0.125 -0.5,4.25 -41.125,-7 -0.5,2.75 -20.5,-4 z"
       id="dh"
       inkscape:connector-curvature="0"
       sodipodi:nodetypes="cccccccccccc">
      <title
         id="title11802">Daniels</title>
      <desc
         id="desc11798">1963-</desc>
    </path>
    <path
       style="fill:none;fill-rule:evenodd;stroke:#000000;stroke-width:1px;stroke-linecap:butt;stroke-linejoin:miter;stroke-opacity:1"
       d="m 191.35626,357.95151 10.5,16 2.125,-1.25 2.125,3.375 -3,19.375 15.625,2.5 4.125,-24.625 -5.625,-9.375 8.625,-6.375 -11.375,-15.75 z"
       id="gh"
       inkscape:connector-curvature="0">
      <desc
         id="desc11836">1965-</desc>
      <title
         id="title11834">Goddard</title>
    </path>
    <path
       style="fill:none;fill-rule:evenodd;stroke:#000000;stroke-width:1px;stroke-linecap:butt;stroke-linejoin:miter;stroke-opacity:1"
       d="m 295.35626,499.82651 4,-10.5 21.625,3.75 -0.75,5 -1.5,-0.25 -2,11.5 6.25,1 -1.25,7.5 -6.25,-1 -1.875,11.75 1.5,0.375 -1.25,6.375 -21.25,-4.375 -0.25,-10.125 2.5,0.375 3.5,-20.5 z"
       id="gl"
       inkscape:connector-curvature="0"
       sodipodi:nodetypes="ccccccccccccccccc">
      <title
         id="title11840">Library</title>
    </path>
    <path
       style="fill:none;fill-rule:evenodd;stroke:#000000;stroke-width:1px;stroke-linecap:butt;stroke-linejoin:miter;stroke-opacity:1"
       d="m 116.98126,474.57651 -8.875,-1.625 0,-0.875 -39.375,-6.625 -6.75,16.375 1.5,13.5 7.125,1.375 -1,6.125 4.625,1 0.625,-3.125 13.75,2.625 -0.5,2.25 5.625,1 1.25,-6.25 7.75,1.375 0.5,-2.25 8.875,1.5 z"
       id="ha"
       inkscape:connector-curvature="0">
      <desc
         id="desc11846">1968-</desc>
      <title
         id="title11844">Harrington</title>
    </path>
    <g
       id="sx">
      <desc
         id="desc11887">1969-</desc>
      <title
         id="title11885">Stoddard</title>
      <path
         sodipodi:nodetypes="ccccccccccccc"
         inkscape:connector-curvature="0"
         id="path11848"
         d="m -72.89374,615.70151 9.625,1.5 -0.125,1.125 7.25,1.25 0.25,-1.25 9.625,1.875 -1.25,9.125 -9.625,-1.75 0.25,-2.25 -7.25,-1.375 -0.5,2.875 -9.75,-1.875 z"
         style="fill:none;fill-rule:evenodd;stroke:#000000;stroke-width:1px;stroke-linecap:butt;stroke-linejoin:miter;stroke-opacity:1" />
      <path
         sodipodi:nodetypes="ccccccccccccc"
         inkscape:connector-curvature="0"
         id="path11848-4"
         d="m -89.487007,656.61011 1.390449,-9.64143 1.126348,0.1122 1.167473,-7.26375 -1.252762,-0.23576 1.765425,-9.6457 9.138623,1.14614 -1.640431,9.64428 3.497302,0.6506 -0.917464,7.39018 -3.2445,-0.53274 -1.764003,9.7707 z"
         style="fill:none;fill-rule:evenodd;stroke:#000000;stroke-width:1px;stroke-linecap:butt;stroke-linejoin:miter;stroke-opacity:1" />
      <path
         sodipodi:nodetypes="ccccccccccccc"
         inkscape:connector-curvature="0"
         id="path11848-4-5"
         d="m -35.483771,663.53477 -9.667586,-1.19512 0.08939,-1.12839 -7.285881,-1.02028 -0.210368,1.25727 -9.679442,-1.56992 0.961027,-9.15994 9.675493,1.44498 0.579715,-3.50975 7.407228,0.76778 -0.466993,3.25461 9.804387,1.56598 z"
         style="fill:none;fill-rule:evenodd;stroke:#000000;stroke-width:1px;stroke-linecap:butt;stroke-linejoin:miter;stroke-opacity:1" />
    </g>
    <g
       id="ea">
      <desc
         id="desc5310">1972-</desc>
      <title
         id="title5308">Ellsworth</title>
      <path
         inkscape:connector-curvature="0"
         id="path5297"
         d="m -6.26874,626.01403 8.375,1.25 -1.4375,8.1875 -2.75,-0.4375 -1.75,10.875 1.8125,0.25 -0.9375,5.125 -8.1875,-1.4375 0.8125,-4.75 -1.0625,-0.125 1.5625,-10.8125 2.125,0.375 z"
         style="fill:none;fill-rule:evenodd;stroke:#000000;stroke-width:1px;stroke-linecap:butt;stroke-linejoin:miter;stroke-opacity:1" />
      <path
         sodipodi:nodetypes="ccccccccc"
         inkscape:connector-curvature="0"
         id="path5299"
         d="m 7.66876,639.01403 18.8125,3 1.375,-8.5 -3.5625,-0.625 0.375,-2.8125 -11.25,-1.9375 -0.4375,2.5625 -3.9375,-0.75 z"
         style="fill:none;fill-rule:evenodd;stroke:#000000;stroke-width:1px;stroke-linecap:butt;stroke-linejoin:miter;stroke-opacity:1" />
      <path
         sodipodi:nodetypes="ccccccccccccccccccccc"
         inkscape:connector-curvature="0"
         id="path5301"
         d="m 9.16876,643.01403 18,3.0625 0.3125,-2.0625 4.9375,0.75 0.3125,-1.5 5.5,0.6875 -0.3125,2.4375 5.25,0.75 -1.5,9.5625 -5.0625,-0.9375 0.375,-2.75 -5.8125,-1 -0.375,1.75 -4.875,-0.75 -0.3125,2 -4.4375,-0.6875 -0.3125,1.9375 -9,-1.5 0.3125,-1.625 -4.5,-0.875 z"
         style="fill:none;fill-rule:evenodd;stroke:#000000;stroke-width:1px;stroke-linecap:butt;stroke-linejoin:miter;stroke-opacity:1" />
    </g>
    <g
       id="fa">
      <desc
         id="desc5323">1972-</desc>
      <title
         id="title5321">Fuller_Apts</title>
      <path
         inkscape:connector-curvature="0"
         id="path5313"
         d="m 79.41876,634.95153 -10.75,-1.9375 -0.875,5.0625 -2.75,-0.5625 -1.8125,11.1875 -1.3125,-0.25 -1.75,11.1875 2.1875,0.5 -1.625,10.125 9.875,1.75 1.8125,-10.3125 -3.3125,-0.5625 1.8125,-11.0625 3.125,0.5 1.625,-11 2.875,0.5 z"
         style="fill:none;fill-rule:evenodd;stroke:#000000;stroke-width:1px;stroke-linecap:butt;stroke-linejoin:miter;stroke-opacity:1" />
      <path
         sodipodi:nodetypes="ccccccccccccccccc"
         inkscape:connector-curvature="0"
         id="path5315"
         d="m 92.60626,636.57653 10,1.5625 -0.6875,4.8125 3.5,0.5625 -1.6875,10.875 -3.3125,-0.625 -0.9375,5.8125 -2.3125,-0.5 -1.75,10.4375 -10.3125,-2 1.75,-10.0625 2.5625,0.375 1,-5.8125 2.6875,0.5 1.75,-10.6875 -3,-0.4375 z"
         style="fill:none;fill-rule:evenodd;stroke:#000000;stroke-width:1px;stroke-linecap:butt;stroke-linejoin:miter;stroke-opacity:1" />
    </g>
    <path
       style="fill:none;fill-rule:evenodd;stroke:#000000;stroke-width:1px;stroke-linecap:butt;stroke-linejoin:miter;stroke-opacity:1"
       d="m 381.04376,585.20153 12.75,2.25 -0.5625,2.75 1.9375,0.4375 0.3125,-1.625 8.125,1.3125 -1.5625,10.4375 8.875,1.25 -1.1875,7.6875 -8.75,-1.3125 -1.125,6.625 -2,-0.3125 -0.3125,2.375 4.8125,0.6875 -0.9375,7.4375 -8.5625,-1.25 -0.625,4.125 -2,-0.4375 -0.375,2.5 5.0625,0.75 -0.8125,7.3125 -8.5625,-0.8125 -0.4375,4.75 -2.25,-0.25 -0.25,2.4375 4.5625,0.6875 -1,7.6875 -8.5625,-1.4375 -0.25,1.625 -7.6875,-1.1875 1.0625,-6.625 1.5,0.375 0.5,-2.8125 -5.875,-1.0625 1.125,-5.8125 6.875,0.875 0.75,-5.625 1.9375,0.3125 0.375,-3.5625 -2.1875,-0.375 0.875,-7.0625 8.75,0.6875 2.25,-19.625 -9.1875,-0.75 z"
       id="fh"
       inkscape:connector-curvature="0">
      <desc
         id="desc5329">1984-</desc>
      <title
         id="title5327">Founders</title>
    </path>
    <path
       style="fill:none;fill-rule:evenodd;stroke:#000000;stroke-width:1px;stroke-linecap:butt;stroke-linejoin:miter;stroke-opacity:1"
       d="m 357.04376,672.82653 -4.4375,27.625 19.5,2.8125 4.375,-27.9375 z"
       id="ih"
       inkscape:connector-curvature="0">
      <desc
         id="desc5335">1989-</desc>
      <title
         id="title5333">Institute</title>
    </path>
    <path
       style="fill:none;fill-rule:evenodd;stroke:#000000;stroke-width:1px;stroke-linecap:butt;stroke-linejoin:miter;stroke-opacity:1"
       d="m 320.50872,409.7599 4.29932,0.79617 8.12096,18.0731 3.90124,-1.59234 1.67196,4.06048 -10.191,5.0955 5.81206,13.21645 -33.04114,13.93301 -9.15598,-20.54124 4.21971,-1.99043 c 0,0 -1.36808,-2.41769 -0.71655,-4.45856 0.61834,-1.93689 2.86622,-2.86622 2.86622,-2.86622 l -0.79617,-1.91081 16.40114,-7.16555 -4.21971,-9.95215 z"
       id="fl"
       inkscape:connector-curvature="0"
       sodipodi:nodetypes="ccccccccccsccccc">
      <desc
         id="desc5341">1990-</desc>
      <title
         id="title5339">Fuller</title>
    </path>
    <path
       style="fill:none;fill-rule:evenodd;stroke:#000000;stroke-width:1px;stroke-linecap:butt;stroke-linejoin:miter;stroke-opacity:1"
       d="m 150.76485,445.50802 -10.82793,-3.50316 -5.17512,27.14946 27.54755,4.53818 1.03502,-5.17511 5.5732,0.87579 1.43312,4.69741 4.53817,2.46814 6.52862,-3.18469 0.71655,-4.93626 -3.58277,-3.90125 0.9554,-4.53818 5.41397,0.79617 6.76746,-40.52515 -16.08267,-3.34393 -1.03502,3.18469 -1.75158,-0.39808 -6.13053,5.89167 2.38852,1.19426 -5.17512,5.41397 -3.58277,-0.63694 -3.18469,3.82162 0.39809,3.58278 z"
       id="cc"
       inkscape:connector-curvature="0"
       sodipodi:nodetypes="cccccccccccccccccccccccc">
      <desc
         id="desc5347">2001-</desc>
      <title
         id="title5345">Campus_Center</title>
    </path>
    <path
       style="fill:none;fill-rule:evenodd;stroke:#000000;stroke-width:1px;stroke-linecap:butt;stroke-linejoin:miter;stroke-opacity:1"
       d="m 121.86381,529.66339 18.39157,3.42354 -8.20057,44.98372 -17.83425,-3.34392 z"
       id="bc"
       inkscape:connector-curvature="0">
      <desc
         id="desc5353">2006-</desc>
      <title
         id="title5351">Bartlett</title>
    </path>
    <path
       inkscape:connector-curvature="0"
       id="eh"
       style="fill:none;stroke:#231f20;stroke-width:1.00049996;stroke-linecap:butt;stroke-linejoin:miter;stroke-miterlimit:4;stroke-dasharray:none;stroke-opacity:1"
       d="m 398.34632,513.34411 -10.05212,-1.66787 -0.54325,3.26862 -2.76238,-0.46025 -1.958,11.81188 2.76538,0.45725 -0.54025,3.26662 10.05112,1.66888 0.29313,-1.76288 1.75687,0.29413 -0.66637,4.01999 -1.75788,-0.29112 -0.45925,2.76637 -1.50775,-0.25112 -0.74937,4.52325 1.50575,0.25012 -0.74738,4.52425 -1.50975,-0.25212 -0.74937,4.52625 1.50875,0.24812 -0.45825,2.76338 1.75787,0.29212 -0.70837,4.27325 -1.75788,-0.29225 0.28925,-1.75687 -10.05112,-1.66788 -0.54025,3.26875 -2.76638,-0.46025 -1.955,11.81288 2.76438,0.45625 -0.54325,3.26762 10.054,1.66875 0.29312,-1.76287 3.51588,0.58537 -0.29213,1.75988 7.0385,1.16562 0.29,-1.75887 3.51688,0.58225 -0.29025,1.75987 10.053,1.66375 0.54037,-3.2655 2.76538,0.45913 1.959,-11.81288 -2.76438,-0.45725 0.54025,-3.26662 -10.054,-1.66675 -0.28925,1.75787 -1.75887,-0.29025 0.70837,-4.27112 1.50875,0.24812 0.45525,-2.76337 1.25763,0.20912 0.75037,-4.52625 -1.25662,-0.20612 0.74937,-4.52625 1.25663,0.21212 0.75037,-4.52525 -1.25862,-0.21012 0.46125,-2.76438 -1.50875,-0.24912 0.66437,-4.021 1.75875,0.29212 -0.289,1.75988 10.051,1.66587 0.54125,-3.26862 2.76438,0.46025 1.958,-11.812 -2.7625,-0.46025 0.54137,-3.26562 -10.05412,-1.66575 -0.29013,1.75887 -3.52175,-0.58325 0.29425,-1.758 -7.03562,-1.1665 -0.29313,1.75888 -3.51762,-0.58225 0.29012,-1.75888 z">
      <desc
         id="desc5393">2008-</desc>
      <title
         id="title5391">East</title>
    </path>
    <g
       transform="matrix(1.7187791,0.05738061,0.05738061,-1.7187791,56.587998,474.68924)"
       id="rc"
       style="stroke:#000000;stroke-width:0.58148438;stroke-miterlimit:4;stroke-dasharray:none;stroke-opacity:1">
      <desc
         id="desc11065">2012-</desc>
      <title
         id="title11063">Rec_Center</title>
      <path
         inkscape:connector-curvature="0"
         id="path2258"
         style="fill:none;stroke:#000000;stroke-width:0.58148438;stroke-linecap:butt;stroke-linejoin:miter;stroke-miterlimit:4;stroke-dasharray:none;stroke-opacity:1"
         d="m 0,0 -2.389,-13.395 3.834,-2.876 -2.453,-3.325 -2.145,1.674 -4.248,-25.202 -8.116,1.367 -0.398,-2.359 -7.836,1.321 -4.266,-5.737 -14.08,10.333 25.973,35.178 1.07,5.558 L 0,0 Z" />
    </g>
    <g
       transform="matrix(1.25,0,0,-1.25,395.23323,394.1375)"
       id="g2076" />
    <g
       transform="matrix(1.25,0,0,-1.25,-33.562357,379.55342)"
       id="g2"
       style="stroke:#000000;stroke-width:0.80000001;stroke-miterlimit:4;stroke-dasharray:none;stroke-opacity:1">
      <title
         id="title16045">Gateway_II</title>
      <path
         inkscape:connector-curvature="0"
         id="path2082"
         style="fill:none;stroke:#000000;stroke-width:0.80000001;stroke-linecap:butt;stroke-linejoin:miter;stroke-miterlimit:4;stroke-dasharray:none;stroke-opacity:1"
         d="m 0,0 -1.189,-11.57 38.507,-3.931 -5.838,12.271 -15.752,1.616 -1.389,12.425 3.913,0.437 0.199,-1.35 3.732,0.725 -4.705,7.543 -0.251,2.252 L -5.879,17.834 -4.854,8.665 2.489,9.486 3.591,-0.368 0,0 Z" />
    </g>
    <g
       transform="matrix(1.25,0,0,-1.25,375.9021,365.29225)"
       id="g2132" />
    <g
       transform="matrix(1.25,0,0,-1.25,-50.603637,398.7951)"
       id="ps"
       style="stroke:#000000;stroke-width:0.80000001;stroke-miterlimit:4;stroke-dasharray:none;stroke-opacity:1">
      <title
         id="title16043">Prescott_St</title>
      <path
         inkscape:connector-curvature="0"
         id="path2138"
         style="fill:none;stroke:#000000;stroke-width:0.80000001;stroke-linecap:butt;stroke-linejoin:miter;stroke-miterlimit:4;stroke-dasharray:none;stroke-opacity:1"
         d="m 0,0 -2.468,15.885 0.003,0 -0.396,2.555 0.045,0.078 0,24.628 -1.654,-0.251 -0.007,0.041 -23.054,-3.58 0.287,-1.849 -1.857,-0.289 0.931,-5.991 1.858,0.288 0.27,-1.739 12.315,1.913 1.078,-6.937 -10.366,-1.61 0.634,-4.085 -1.392,-0.216 -0.628,4.041 -4.764,-0.74 1.36,-8.76 4.115,0.639 0.217,-1.399 12.409,1.927 L -8.597,-1.335 0,0 Z" />
    </g>
    <g
       transform="matrix(1.25,0,0,-1.25,423.51197,468.53938)"
       id="g2268" />
    <g
       transform="matrix(1.25,0,0,-1.25,-55.660417,457.221)"
       id="gp"
       style="stroke:#000000;stroke-width:0.80000001;stroke-miterlimit:4;stroke-dasharray:none;stroke-opacity:1">
      <desc
         id="desc16047">2007-</desc>
      <title
         id="title16039">Gateway</title>
      <path
         inkscape:connector-curvature="0"
         id="path2274"
         style="fill:none;stroke:#000000;stroke-width:0.80000001;stroke-linecap:butt;stroke-linejoin:miter;stroke-miterlimit:4;stroke-dasharray:none;stroke-opacity:1"
         d="m 0,0 -16.204,-2.096 -0.392,3.182 -0.6,-0.01 -3.903,29.258 12.784,1.759 -0.873,6.624 L 2.972,37.544 4.31,27.565 -1.567,26.77 -1.629,27.131 -2.87,26.971 0.181,3.368 -0.36,3.278 0,0 Z" />
    </g>
    <g
       transform="matrix(1.2500001,0,0,-1.2500001,14.355663,438.82502)"
       id="fd"
       style="stroke:#000000;stroke-width:0.80000001;stroke-miterlimit:4;stroke-dasharray:none;stroke-opacity:1">
      <title
         id="title16041">Faraday</title>
      <path
         inkscape:connector-curvature="0"
         id="path2282"
         style="fill:none;stroke:#000000;stroke-width:0.80000001;stroke-linecap:butt;stroke-linejoin:miter;stroke-miterlimit:4;stroke-dasharray:none;stroke-opacity:1"
         d="M 0,0 -3.793,-0.511 -4.241,2.283 -6.009,2.13 -6.289,3.796 -8.674,3.364 -10.486,15.885 -27.93,13.398 -34.936,1.921 l 1.704,-0.951 -1.706,-2.728 -1.898,0.794 -2.206,-3.548 -5.049,2.373 0.591,1.103 -1.653,0.887 11.985,19.971 1.474,0.128 -0.012,0.937 23.916,2.93 0.258,-1.897 3.561,0.536 0.283,-2.19 0.999,0.06 L 0,0 Z" />
    </g>
  </g>
</svg>
